PathFileType	4	(X/Y/Z)	12_1_40_p0_0-176_filt_butterworth.trc
DataRate	CameraRate	NumFrames	NumMarkers	Units	OrigDataRate	OrigDataStartFrame	OrigNumFrames
56.0	56.0	7	27	m	56.0	22	176
Frame#	Time	RHip			RKnee			RAnkle			RBigToe			RSmallToe			RHeel			LHip			LKnee			LAnkle			LBigToe			LSmallToe			LHeel			Neck			Head			Nose			RShoulder			RElbow			RWrist			RThumb			RIndex			RPinky			LShoulder			LElbow			LWrist			LThumb			LIndex			LPinky			
		X1	Y1	Z1	X2	Y2	Z2	X3	Y3	Z3	X4	Y4	Z4	X5	Y5	Z5	X6	Y6	Z6	X7	Y7	Z7	X8	Y8	Z8	X9	Y9	Z9	X10	Y10	Z10	X11	Y11	Z11	X12	Y12	Z12	X13	Y13	Z13	X14	Y14	Z14	X15	Y15	Z15	X16	Y16	Z16	X17	Y17	Z17	X18	Y18	Z18	X19	Y19	Z19	X20	Y20	Z20	X21	Y21	Z21	X22	Y22	Z22	X23	Y23	Z23	X24	Y24	Z24	X25	Y25	Z25	X26	Y26	Z26	X27	Y27	Z27	
22	0.3928571428571428	0.4320630811886287	0.5008600136761903	1.1058744974243278	0.470891539967506	0.5392572184130522	1.529300912615591	0.5093449432940984	0.5580078045860356	1.9214949958643008	0.4754616860823284	0.37670913824590335	1.9242993428516166	0.5410684724223003	0.4202737907193995	1.92570982786673	0.4941217273618623	0.6383034904529625	2.0159049112132896	0.24434827399246464	0.4837304508596599	1.1158452491424096	0.2680080392194082	0.5338494829282947	1.5566010737009701	0.3107526278147564	0.5511193194699484	1.952200413727231	0.32252849371439307	0.36407310874608834	1.9371071635583343	0.2545074781152732	0.4051755042052238	1.939408395541607	0.32679303585719144	0.5823908625714556	1.9933022932308386	0.3033787999845186	0.514122373461905	0.5245378529308768	0.2991537260312702	0.5220648143173482	0.2842692098264154	0.3028654981416038	0.40586778448589267	0.3913312074431167	0.4594450383999721	0.5500860729732968	0.6218543225173967	0.5254236274449825	0.4908376918709707	0.8382650910280631	0.4255050118835907	0.3160012567466978	0.8866468075713101	0.31456252391847705	0.25752339372442357	0.8545490899014481	0.3072799071223233	0.2491241896270392	0.8953046986689802	0.3295635237616189	0.2840925329592334	0.9637949810681944	0.13958974966459864	0.5333206064071278	0.6329154313185985	0.1101549529663985	0.5016811082552537	0.8634564568694086	0.22514897950651105	0.349179241005968	0.9300838072751005	0.2938610204934948	0.27934865051497665	0.8766355784060743	0.3220142262296337	0.26666110094683776	0.916817557060424	0.30582440388705384	0.32068711592725	0.9863846310277379
23	0.4107142857142857	0.4323801988084466	0.4961625079251078	1.1006589594651963	0.4708143717621556	0.5391769503639872	1.5291670432059248	0.5092283569570807	0.5581479431255121	1.9232749751551175	0.47542936941074815	0.3763823541900464	1.9240711172706944	0.5406005932855992	0.4131544063053435	1.9219801094503906	0.4945923536985079	0.6384914536153555	2.0175370198960625	0.24511568240098158	0.47748769046432255	1.111156905586717	0.2677803443215617	0.5345853697553697	1.5554608318885608	0.3106802163482572	0.5513725235602897	1.9518762876507731	0.32155307112665377	0.3614769918700474	1.9370461630905864	0.25450628225170246	0.4051504335533217	1.9394540209455775	0.3264234491021225	0.5818362993613126	1.9918528224457968	0.30323635168909135	0.5136039675657805	0.5234161714139878	0.2979338386882655	0.518914730854063	0.28424185696668774	0.3010022772885805	0.4046044427298404	0.39193006170580486	0.4594429693120349	0.550018344236552	0.6218998509406997	0.5204046547021053	0.506065171335627	0.8396958967829153	0.43826089710072563	0.3071612462026282	0.8643545808213666	0.3290015422834384	0.24739873224593115	0.8287795909423079	0.3250931526676848	0.22431628390094488	0.8576091085319079	0.3431678750811047	0.25698999420775087	0.926081272596116	0.1395717650852268	0.5333251145211495	0.6328905783441174	0.10912759280551426	0.4930524851288516	0.8630984320549339	0.21346357656784332	0.3335970400107695	0.9101383638749537	0.2808483065786706	0.2666228427785131	0.8548111398503775	0.3082541932260506	0.25039386802768304	0.8994810034765938	0.2953402457340339	0.31798317481917443	0.9657043023563099
24	0.4285714285714285	0.4324926497673745	0.49301229139275304	1.0956565353363539	0.4704426129570646	0.5391361390677988	1.5286136933600192	0.5090955902109556	0.5583533309806045	1.9242160326469457	0.4754061689285951	0.3760121385400179	1.9238245324071428	0.5399318699196844	0.40349489349259604	1.9169158032251945	0.49564721413109064	0.6391020889732245	2.018109242686367	0.24469768213698753	0.47441462300503634	1.107180998320803	0.26762826743965773	0.5350860017544146	1.5542235795098631	0.310486322332684	0.5519713226448708	1.9509585629291202	0.3215598459499387	0.36211884015150775	1.9381394077044793	0.2545193826857978	0.40511119465054196	1.9394902272261219	0.3263042124042538	0.5814691177818821	1.9913615906982252	0.3028381736834109	0.5128646230152639	0.5233860672760984	0.29564587665111713	0.5144451959350296	0.28414808494682114	0.29924054458403343	0.4042967516190377	0.39217918144197805	0.45942727312075016	0.5497728878107421	0.6218253554463652	0.5124011417315284	0.5247366720408602	0.8438203962549051	0.4462763985052003	0.3070942983874864	0.845346812492846	0.34404873573265093	0.23438904224386056	0.8061737613240947	0.34316633908976796	0.20211101460856506	0.8226956669642349	0.3575759716865475	0.2295168412935565	0.8908058725099435	0.13989385592098347	0.5335753718041685	0.633003588448741	0.1091006163809812	0.48833735918066007	0.8643476593600112	0.20195185681260575	0.32410416106993606	0.8920794663884897	0.26620148766595625	0.247410577222647	0.8368061170907585	0.29095872999016276	0.22759318707321466	0.8746615080292762	0.28454954163584284	0.3111163317276558	0.9493648893533284
25	0.4464285714285714	0.43195163274484677	0.4935837583127573	1.0910179554425758	0.469784383001194	0.5391484761811483	1.5259877869210101	0.5090574160950299	0.5585231444723756	1.9238342622520226	0.47540473716018955	0.37580681312210884	1.9236947241837785	0.539428913652624	0.3964169067507598	1.9131880503286185	0.49698931541083535	0.6397492976685257	2.01805435423289	0.2440803382048109	0.4738848259663796	1.1026803865441877	0.2675572181412945	0.5350684845211648	1.5521459442164325	0.31020033795377716	0.552706199699595	1.9497086482633406	0.32257464699108435	0.36571989281431944	1.9392019659404196	0.2545324580943146	0.4050529974212094	1.9395012344077236	0.3263166705987511	0.5813637819544539	1.9914063365613832	0.3018681298000544	0.5124739881331868	0.524720413224115	0.293234721274034	0.5108472483630904	0.2840062836162957	0.2981899885999193	0.40418942885772485	0.3922658424555015	0.45938507690966385	0.5492878316082555	0.6213825401214477	0.5054963296887326	0.5381343378231241	0.8471155328168529	0.451301713732576	0.31232576768153764	0.8292554532258534	0.3611796531742923	0.21943845936744225	0.7809126035813436	0.3613327203269236	0.18446768912547976	0.7947045469628921	0.3724921530402566	0.2080193945538061	0.8614269845160436	0.14126627673931405	0.5342251708154008	0.6323132914000493	0.11072412660547769	0.49045436081333704	0.8628143749161913	0.1919528234272255	0.323746092806447	0.8781883613025196	0.2517670990955216	0.22974358118713284	0.8214189995758464	0.27282047882244853	0.2053171615134056	0.8473256820444632	0.2732919792379785	0.2940822548134735	0.9348754283828636
26	0.4642857142857143	0.4303372802092501	0.49798667578190015	1.085339340069884	0.4691669762288475	0.5391669458226951	1.5213537794462957	0.509127155161968	0.5585510274819167	1.9228354802934193	0.47542163569011286	0.3758268216190178	1.92371745056893	0.5392633007223424	0.39406825536914974	1.911931092621302	0.4979243693766351	0.6400143467975725	2.0177427999557502	0.24444642682968998	0.4733272574069581	1.0956209051459902	0.26743604425022266	0.5345875723101906	1.5485443145418212	0.3099635761441142	0.5532072533203429	1.9487795659885647	0.32366165846641876	0.3690046083867899	1.9395165903281617	0.25453848037957894	0.4049895655831017	1.9394871396489342	0.3263140113260614	0.5813749335578884	1.9914641667723934	0.3004863344158041	0.5123771075597545	0.5268357166208476	0.29180797210957937	0.5093461733938247	0.28387654588479205	0.2979227443025722	0.40405183539724465	0.39233551863042593	0.4593230262290038	0.5487400823308213	0.6205291005105367	0.503494211168241	0.5390763216642779	0.8460083761388135	0.45783155797934005	0.31860697700295887	0.8149085758263727	0.38195177461785546	0.20828854345127534	0.7520144275517205	0.3819714732305337	0.1751019473705475	0.7708758420147772	0.38851368101374245	0.19970367498069969	0.8365984162968194	0.14378524364976988	0.5349713662785571	0.6298009486726317	0.11418826242596561	0.49768322973821555	0.8557780026408857	0.1847792275078129	0.32785136741201104	0.8661374484802898	0.2385111233898081	0.2195190472501497	0.8045154169353735	0.2541218101449953	0.1899024601419071	0.8247828906115596	0.2596480690231937	0.2685355714010369	0.9147473765628306
27	0.4821428571428571	0.42818999928858353	0.5038408661647008	1.0792492355877756	0.46888287992808164	0.5391545300001631	1.5169429283870017	0.5092446507637093	0.5584316221195801	1.9218397252045452	0.4754480825676596	0.37592498389150214	1.9237970400235829	0.5393047648572938	0.39443520051712383	1.9121092306148029	0.4982745395293264	0.6400232078664088	2.0171087569300767	0.24558031639608074	0.47157340917497265	1.0864930413749592	0.2672582142364476	0.5339643680947377	1.5441137058920071	0.3098614257382143	0.5533690644109147	1.9484580473371023	0.32412688896692166	0.36925721597143424	1.939326907392461	0.254546270845414	0.40493349462960726	1.9394533892004688	0.32626046380885043	0.5813969059077585	1.9913812279333998	0.29922185226551024	0.5120853876898399	0.5284343774412048	0.2915111225606501	0.5092992226973876	0.2837876203299078	0.29802458921015046	0.40389813764550586	0.3924120444482299	0.45927400901335075	0.5484277397548646	0.6199503621310696	0.5063629085668588	0.5265082458110898	0.8410100601655	0.46744738473394387	0.3227494423725371	0.8022379094033973	0.4055305566840047	0.201916514307066	0.7233758071663021	0.4065368953636802	0.1722114450090496	0.7452664114084911	0.4058232563821335	0.20187798641256688	0.8129821149716998	0.1462360887850851	0.5353757796709362	0.6263551597699325	0.1181275220945874	0.5028744511798277	0.8456852978408658	0.17891971491473518	0.32918692261016413	0.8506249548515599	0.22405944812739056	0.21434923004452286	0.7838803138656003	0.23217136541219574	0.18088689905778413	0.8056963148181024	0.24155036749219644	0.24073171002165475	0.8850105581300194
28	0.5	0.4267004899472843	0.5080120793627653	1.0753182522015956	0.4688859267328012	0.5391269456263131	1.5146488991473073	0.5093727637084098	0.5582784625327301	1.920850280361948	0.47547423074586204	0.3759841609776956	1.9238620542632046	0.539381937438667	0.395175710346371	1.9124989358529465	0.49831280788832294	0.6400228764029023	2.016225908663602	0.24643161876180514	0.47045930484951415	1.079219627637931	0.2671579062971704	0.5335438885443722	1.5405722747201145	0.3098565057226204	0.5533549945222391	1.9484897259673462	0.32381888367493067	0.366214521010788	1.938428862188276	0.2545589959332184	0.4048917180927677	1.9394122916962886	0.3262222092767538	0.5814374005099872	1.991329585786963	0.29832592389550006	0.5114800673647872	0.5287450183083309	0.2916520403927758	0.5095896842715035	0.28372500659045174	0.29814081072271725	0.40378683461573095	0.3924703997608191	0.4592697955390378	0.5484182425519551	0.62033745802376	0.5107649230762088	0.508377815296095	0.8366069552366868	0.47870980022898	0.3210134982436093	0.7902915291350527	0.43061365131242796	0.19476044535022355	0.6977481133824066	0.43321145839089126	0.17068202310911204	0.7173031957210743	0.424450914800686	0.20439533872804555	0.7877929763662384	0.1473054985793229	0.5357549279871712	0.6241163895488342	0.12073282412834434	0.5002330317001882	0.8374289620933366	0.1707803433157301	0.32395153058216086	0.829108811224285	0.20562433482244186	0.21119514203130074	0.7625083480456814	0.20676921915231644	0.1721433251081591	0.7840268213264246	0.21831685268483828	0.21288244412947244	0.8500544222753348
